<?xml version="1.0" standalone="no"?>
<!DOCTYPE svg PUBLIC "-//W3C//DTD SVG 1.1//EN" "http://www.w3.org/Graphics/SVG/1.1/DTD/svg11.dtd">
<svg xmlns:dc="http://purl.org/dc/elements/1.1/" xmlns:cc="http://creativecommons.org/ns#" xmlns:rdf="http://www.w3.org/1999/02/22-rdf-syntax-ns#" xmlns:svg="http://www.w3.org/2000/svg" xmlns="http://www.w3.org/2000/svg" id="svg8240" version="1.1" viewBox="0 0 32.327492 49.149235" height="49.149234771728516" width="32.327491760253906">
  <g transform="translate(-89.669585,-124.25872)" id="layer1">
    <g transform="matrix(0.35277777,0,0,-0.35277777,105.97497,147.68069)" id="g7143">
      <path id="path7145" style="fill:#231f20;fill-opacity:1;fill-rule:nonzero;stroke:none" d="m 0,0 c -11.585,0 -20.976,9.391 -20.976,20.976 0,11.585 9.391,20.976 20.976,20.976 11.585,0 20.976,-9.391 20.976,-20.976 C 20.976,9.391 11.585,0 0,0 m 0,66.393 c -25.083,0 -45.417,-20.334 -45.417,-45.417 V -24.442 H 0 c 25.083,0 45.417,20.335 45.417,45.418 v 45.417 z"/>
    </g>
    <g transform="matrix(0.35277777,0,0,-0.35277777,93.321893,165.09186)" id="g7147">
      <path id="path7149" style="fill:#231f20;fill-opacity:1;fill-rule:nonzero;stroke:none" d="M 0,0 C -2.438,0 -4.415,1.977 -4.415,4.415 -4.415,6.853 -2.438,8.83 0,8.83 2.438,8.83 4.415,6.853 4.415,4.415 4.415,1.977 2.438,0 0,0 m 0,14.768 c -5.718,0 -10.353,-4.635 -10.353,-10.353 0,-5.718 4.635,-10.353 10.353,-10.353 5.718,0 10.353,4.635 10.353,10.353 0,5.718 -4.635,10.353 -10.353,10.353"/>
    </g>
    <g transform="matrix(0.35277777,0,0,-0.35277777,97.467075,166.5095)" id="g7151">
      <path id="path7153" style="fill:#231f20;fill-opacity:1;fill-rule:nonzero;stroke:none" d="m 0,0 c 0,-1.109 -0.899,-2.008 -2.008,-2.008 -1.11,0 -2.009,0.899 -2.009,2.008 0,1.109 0.899,2.008 2.009,2.008 C -0.899,2.008 0,1.109 0,0"/>
    </g>
    <g transform="matrix(0.35277777,0,0,-0.35277777,102.51634,164.97767)" id="g7155">
      <path id="path7157" style="fill:#231f20;fill-opacity:1;fill-rule:nonzero;stroke:none" d="M 0,0 H -3.985 V 4.01 8.02 H 0 C 2.201,8.02 3.985,6.224 3.985,4.01 3.985,1.795 2.201,0 0,0 M 0.204,13.954 H -9.74 V 4.01 -5.934 h 9.944 c 5.492,0 9.944,4.452 9.944,9.944 0,5.492 -4.452,9.944 -9.944,9.944"/>
    </g>
    <g transform="matrix(0.35277777,0,0,-0.35277777,106.61304,166.5095)" id="g7159">
      <path id="path7161" style="fill:#231f20;fill-opacity:1;fill-rule:nonzero;stroke:none" d="m 0,0 c 0,-1.109 -0.899,-2.008 -2.008,-2.008 -1.11,0 -2.009,0.899 -2.009,2.008 0,1.109 0.899,2.008 2.009,2.008 C -0.899,2.008 0,1.109 0,0"/>
    </g>
    <path id="path7163" style="fill:#231f20;fill-opacity:1;fill-rule:nonzero;stroke:none;stroke-width:0.35277778" d="m 110.58716,167.07119 h -2.45568 v -7.02945 h 2.45568 z"/>
    <g transform="matrix(0.35277777,0,0,-0.35277777,112.23957,166.5095)" id="g7165">
      <path id="path7167" style="fill:#231f20;fill-opacity:1;fill-rule:nonzero;stroke:none" d="m 0,0 c 0,-1.109 -0.899,-2.008 -2.008,-2.008 -1.11,0 -2.009,0.899 -2.009,2.008 0,1.109 0.899,2.008 2.009,2.008 C -0.899,2.008 0,1.109 0,0"/>
    </g>
    <g transform="matrix(0.35277777,0,0,-0.35277777,121.25618,165.801)" id="g7169">
      <path id="path7171" style="fill:#231f20;fill-opacity:1;fill-rule:nonzero;stroke:none" d="m 0,0 c -1.109,0 -2.008,-0.899 -2.008,-2.008 0,-1.109 0.899,-2.009 2.008,-2.009 1.109,0 2.008,0.9 2.008,2.009 C 2.008,-0.899 1.109,0 0,0"/>
    </g>
    <g transform="matrix(0.35277777,0,0,-0.35277777,118.20204,164.15195)" id="g7173">
      <path id="path7175" style="fill:#231f20;fill-opacity:1;fill-rule:nonzero;stroke:none" d="m 0,0 h -4.085 -3.934 v 1.604 c 0,2.061 1.795,3.731 4.009,3.731 2.215,0 4.01,-1.67 4.01,-3.731 z m -4.01,11.629 c -5.491,0 -9.944,-4.452 -9.944,-9.943 v -9.944 h 5.936 v 2.535 h 3.933 4.056 v -2.535 h 5.963 v 9.944 c 0,5.491 -4.452,9.943 -9.944,9.943"/>
    </g>
    <g transform="matrix(0.35277777,0,0,-0.35277777,90.045893,169.98922)" id="g7177">
      <path id="path7179" style="fill:#231f20;fill-opacity:1;fill-rule:nonzero;stroke:none" d="m 0,0 c 0,-0.265 0.045,-0.518 0.136,-0.761 0.091,-0.244 0.218,-0.46 0.381,-0.651 0.163,-0.191 0.356,-0.343 0.579,-0.455 0.223,-0.113 0.469,-0.17 0.738,-0.17 0.274,0 0.523,0.059 0.749,0.176 0.225,0.118 0.418,0.274 0.579,0.468 0.16,0.196 0.283,0.414 0.367,0.654 C 3.614,-0.498 3.656,-0.251 3.656,0 3.656,0.264 3.611,0.518 3.523,0.761 3.434,1.004 3.307,1.221 3.142,1.412 2.977,1.602 2.783,1.754 2.56,1.867 2.336,1.979 2.095,2.036 1.834,2.036 1.557,2.036 1.305,1.978 1.08,1.86 0.854,1.744 0.662,1.587 0.504,1.392 0.346,1.197 0.222,0.979 0.133,0.738 0.044,0.498 0,0.251 0,0 m 1.828,-2.342 c -0.321,0 -0.614,0.066 -0.878,0.198 -0.265,0.132 -0.493,0.31 -0.684,0.53 -0.19,0.221 -0.338,0.472 -0.442,0.752 -0.104,0.279 -0.156,0.567 -0.156,0.862 0,0.308 0.054,0.602 0.163,0.881 0.108,0.28 0.261,0.53 0.458,0.748 0.198,0.219 0.427,0.393 0.69,0.521 0.262,0.128 0.547,0.192 0.855,0.192 0.326,0 0.62,-0.067 0.882,-0.202 C 2.978,2.006 3.205,1.826 3.396,1.6 3.587,1.375 3.734,1.123 3.838,0.845 3.942,0.568 3.995,0.286 3.995,0 3.995,-0.312 3.94,-0.608 3.832,-0.888 3.723,-1.168 3.57,-1.417 3.373,-1.636 3.176,-1.856 2.946,-2.027 2.683,-2.154 2.421,-2.28 2.136,-2.342 1.828,-2.342"/>
    </g>
    <g transform="matrix(0.35277777,0,0,-0.35277777,92.872704,170.36577)" id="g7181">
      <path id="path7183" style="fill:#231f20;fill-opacity:1;fill-rule:nonzero;stroke:none" d="m 0,0 c 0,0.165 -0.038,0.319 -0.114,0.463 -0.076,0.142 -0.179,0.26 -0.309,0.35 -0.13,0.092 -0.278,0.137 -0.442,0.137 h -1.874 v -1.893 h 1.828 c 0.169,0 0.323,0.045 0.462,0.133 0.139,0.089 0.248,0.206 0.328,0.352 C -0.04,-0.313 0,-0.16 0,0 M -2.739,3.078 V 1.23 h 1.692 c 0.169,0 0.317,0.044 0.445,0.134 0.128,0.088 0.229,0.203 0.303,0.344 0.073,0.141 0.11,0.29 0.11,0.446 0,0.169 -0.035,0.322 -0.104,0.461 -0.069,0.139 -0.166,0.251 -0.289,0.336 -0.124,0.084 -0.266,0.127 -0.426,0.127 z m 3.071,-3.123 c 0,-0.226 -0.055,-0.429 -0.166,-0.609 -0.111,-0.18 -0.26,-0.322 -0.449,-0.429 -0.188,-0.106 -0.398,-0.159 -0.628,-0.159 h -2.16 v 4.618 h 2.154 c 0.216,0 0.404,-0.057 0.563,-0.171 C -0.197,3.09 -0.075,2.942 0.01,2.762 0.094,2.582 0.137,2.395 0.137,2.199 0.137,1.969 0.078,1.756 -0.039,1.558 -0.156,1.361 -0.319,1.217 -0.527,1.126 -0.263,1.048 -0.053,0.901 0.101,0.687 0.255,0.472 0.332,0.228 0.332,-0.045"/>
    </g>
    <g transform="matrix(0.35277777,0,0,-0.35277777,94.281595,169.44524)" id="g7185">
      <path id="path7187" style="fill:#231f20;fill-opacity:1;fill-rule:nonzero;stroke:none" d="M 0,0 C -0.074,0.082 -0.156,0.154 -0.247,0.218 -0.338,0.281 -0.436,0.333 -0.54,0.374 -0.644,0.415 -0.757,0.446 -0.878,0.469 -1,0.49 -1.13,0.501 -1.269,0.501 c -0.45,0 -0.779,-0.086 -0.985,-0.257 -0.206,-0.171 -0.309,-0.402 -0.309,-0.692 0,-0.195 0.046,-0.349 0.14,-0.464 0.093,-0.115 0.239,-0.207 0.439,-0.276 0.199,-0.07 0.458,-0.137 0.774,-0.202 0.334,-0.069 0.622,-0.15 0.866,-0.244 0.242,-0.092 0.43,-0.219 0.562,-0.38 0.132,-0.159 0.199,-0.376 0.199,-0.649 0,-0.204 -0.039,-0.382 -0.118,-0.536 -0.078,-0.153 -0.19,-0.28 -0.338,-0.38 -0.147,-0.099 -0.322,-0.176 -0.523,-0.227 -0.202,-0.053 -0.427,-0.078 -0.674,-0.078 -0.239,0 -0.466,0.025 -0.683,0.078 -0.217,0.052 -0.421,0.128 -0.612,0.227 -0.191,0.1 -0.368,0.228 -0.533,0.384 l 0.175,0.267 c 0.096,-0.104 0.203,-0.196 0.323,-0.277 0.119,-0.08 0.249,-0.148 0.39,-0.204 0.141,-0.057 0.292,-0.101 0.452,-0.134 0.161,-0.032 0.328,-0.049 0.501,-0.049 0.404,0 0.719,0.075 0.947,0.224 0.228,0.149 0.341,0.372 0.341,0.666 0,0.203 -0.052,0.368 -0.156,0.494 -0.104,0.125 -0.265,0.229 -0.481,0.308 -0.217,0.081 -0.489,0.156 -0.814,0.225 -0.325,0.069 -0.601,0.147 -0.829,0.234 -0.228,0.086 -0.399,0.203 -0.514,0.35 -0.115,0.148 -0.172,0.347 -0.172,0.599 0,0.277 0.068,0.511 0.205,0.704 0.136,0.193 0.328,0.339 0.575,0.438 0.248,0.1 0.532,0.15 0.852,0.15 0.2,0 0.385,-0.019 0.557,-0.059 0.171,-0.038 0.329,-0.098 0.475,-0.178 0.145,-0.081 0.28,-0.182 0.406,-0.303 z"/>
    </g>
    <g transform="matrix(0.35277777,0,0,-0.35277777,95.813492,170.69841)" id="g7189">
      <path id="path7191" style="fill:#231f20;fill-opacity:1;fill-rule:nonzero;stroke:none" d="m 0,0 v -0.3 h -3.077 v 4.619 h 3.019 V 4.021 H -2.745 V 2.205 h 2.348 V 1.919 H -2.745 V 0 Z"/>
    </g>
    <g transform="matrix(0.35277777,0,0,-0.35277777,96.215625,170.08121)" id="g7193">
      <path id="path7195" style="fill:#231f20;fill-opacity:1;fill-rule:nonzero;stroke:none" d="m 0,0 h 1.62 c 0.199,0 0.373,0.055 0.52,0.163 0.147,0.108 0.262,0.25 0.342,0.423 0.08,0.173 0.12,0.358 0.12,0.553 0,0.199 -0.046,0.385 -0.139,0.556 C 2.369,1.866 2.245,2.005 2.091,2.112 1.937,2.218 1.765,2.271 1.574,2.271 H 0 Z M -0.332,-2.049 V 2.57 H 1.587 C 1.787,2.57 1.968,2.529 2.13,2.446 2.293,2.364 2.434,2.255 2.553,2.118 2.673,1.981 2.766,1.828 2.833,1.659 2.901,1.49 2.934,1.317 2.934,1.139 2.934,0.909 2.889,0.694 2.798,0.495 2.706,0.295 2.58,0.128 2.417,-0.006 2.254,-0.141 2.064,-0.223 1.847,-0.253 L 2.999,-2.049 H 2.615 L 1.496,-0.305 H 0 v -1.744 z"/>
    </g>
    <g transform="matrix(0.35277777,0,0,-0.35277777,97.513885,169.17462)" id="g7197">
      <path id="path7199" style="fill:#231f20;fill-opacity:1;fill-rule:nonzero;stroke:none" d="M 0,0 1.757,-4.203 3.513,0 H 3.865 L 1.919,-4.619 H 1.601 L -0.351,0 Z"/>
    </g>
    <g transform="matrix(0.35277777,0,0,-0.35277777,99.710064,170.17051)" id="g7201">
      <path id="path7203" style="fill:#231f20;fill-opacity:1;fill-rule:nonzero;stroke:none" d="M 0,0 -1.001,2.42 -2.006,0 Z m -1.144,2.823 h 0.286 L 1.094,-1.796 H 0.743 l -0.63,1.522 h -2.232 l -0.632,-1.522 h -0.358 z"/>
    </g>
    <g transform="matrix(0.35277777,0,0,-0.35277777,101.15176,169.27995)" id="g7205">
      <path id="path7207" style="fill:#231f20;fill-opacity:1;fill-rule:nonzero;stroke:none" d="M 0,0 H -1.692 V -4.32 H -2.023 V 0 H -3.715 V 0.299 H 0 Z"/>
    </g>
    <g transform="matrix(0.35277777,0,0,-0.35277777,101.30278,169.98922)" id="g7209">
      <path id="path7211" style="fill:#231f20;fill-opacity:1;fill-rule:nonzero;stroke:none" d="m 0,0 c 0,-0.265 0.045,-0.518 0.136,-0.761 0.091,-0.244 0.218,-0.46 0.381,-0.651 0.163,-0.191 0.356,-0.343 0.579,-0.455 0.223,-0.113 0.469,-0.17 0.738,-0.17 0.274,0 0.523,0.059 0.749,0.176 0.225,0.118 0.418,0.274 0.579,0.468 0.16,0.196 0.283,0.414 0.367,0.654 C 3.614,-0.498 3.656,-0.251 3.656,0 3.656,0.264 3.611,0.518 3.523,0.761 3.434,1.004 3.307,1.221 3.142,1.412 2.977,1.602 2.783,1.754 2.56,1.867 2.336,1.979 2.095,2.036 1.834,2.036 1.557,2.036 1.305,1.978 1.08,1.86 0.854,1.744 0.662,1.587 0.504,1.392 0.346,1.197 0.222,0.979 0.133,0.738 0.044,0.498 0,0.251 0,0 m 1.828,-2.342 c -0.321,0 -0.614,0.066 -0.878,0.198 -0.265,0.132 -0.493,0.31 -0.684,0.53 -0.19,0.221 -0.338,0.472 -0.442,0.752 -0.104,0.279 -0.156,0.567 -0.156,0.862 0,0.308 0.054,0.602 0.163,0.881 0.108,0.28 0.261,0.53 0.458,0.748 0.198,0.219 0.427,0.393 0.69,0.521 0.262,0.128 0.547,0.192 0.855,0.192 0.326,0 0.62,-0.067 0.882,-0.202 C 2.978,2.006 3.205,1.826 3.396,1.6 3.587,1.375 3.734,1.123 3.838,0.845 3.942,0.568 3.995,0.286 3.995,0 3.995,-0.312 3.94,-0.608 3.832,-0.888 3.723,-1.168 3.57,-1.417 3.373,-1.636 3.176,-1.856 2.946,-2.027 2.683,-2.154 2.421,-2.28 2.136,-2.342 1.828,-2.342"/>
    </g>
    <g transform="matrix(0.35277777,0,0,-0.35277777,103.16344,170.08121)" id="g7213">
      <path id="path7215" style="fill:#231f20;fill-opacity:1;fill-rule:nonzero;stroke:none" d="m 0,0 h 1.62 c 0.199,0 0.373,0.055 0.52,0.163 0.147,0.108 0.262,0.25 0.342,0.423 0.08,0.173 0.12,0.358 0.12,0.553 0,0.199 -0.046,0.385 -0.139,0.556 C 2.369,1.866 2.245,2.005 2.091,2.112 1.937,2.218 1.765,2.271 1.574,2.271 H 0 Z M -0.332,-2.049 V 2.57 H 1.587 C 1.787,2.57 1.968,2.529 2.13,2.446 2.293,2.364 2.434,2.255 2.553,2.118 2.673,1.981 2.766,1.828 2.833,1.659 2.901,1.49 2.934,1.317 2.934,1.139 2.934,0.909 2.889,0.694 2.798,0.495 2.706,0.295 2.58,0.128 2.417,-0.006 2.254,-0.141 2.064,-0.223 1.847,-0.253 L 2.999,-2.049 H 2.615 L 1.496,-0.305 H 0 v -1.744 z"/>
    </g>
    <path id="path7217" style="fill:#231f20;fill-opacity:1;fill-rule:nonzero;stroke:none;stroke-width:0.35277778" d="m 104.55572,169.1748 h 0.11713 v 1.62948 h -0.11713 z"/>
    <g transform="matrix(0.35277777,0,0,-0.35277777,105.12668,169.98922)" id="g7219">
      <path id="path7221" style="fill:#231f20;fill-opacity:1;fill-rule:nonzero;stroke:none" d="m 0,0 c 0,-0.265 0.045,-0.518 0.136,-0.761 0.091,-0.244 0.218,-0.46 0.381,-0.651 0.163,-0.191 0.356,-0.343 0.579,-0.455 0.223,-0.113 0.469,-0.17 0.738,-0.17 0.274,0 0.523,0.059 0.749,0.176 0.225,0.118 0.418,0.274 0.579,0.468 0.16,0.196 0.283,0.414 0.367,0.654 C 3.614,-0.498 3.656,-0.251 3.656,0 3.656,0.264 3.611,0.518 3.523,0.761 3.434,1.004 3.307,1.221 3.142,1.412 2.977,1.602 2.783,1.754 2.56,1.867 2.336,1.979 2.095,2.036 1.834,2.036 1.557,2.036 1.305,1.978 1.08,1.86 0.854,1.744 0.662,1.587 0.504,1.392 0.346,1.197 0.222,0.979 0.133,0.738 0.044,0.498 0,0.251 0,0 m 1.828,-2.342 c -0.321,0 -0.614,0.066 -0.878,0.198 -0.265,0.132 -0.493,0.31 -0.684,0.53 -0.19,0.221 -0.338,0.472 -0.442,0.752 -0.104,0.279 -0.156,0.567 -0.156,0.862 0,0.308 0.054,0.602 0.163,0.881 0.108,0.28 0.261,0.53 0.458,0.748 C 0.486,1.848 0.716,2.022 0.979,2.15 1.241,2.278 1.526,2.342 1.834,2.342 2.16,2.342 2.453,2.275 2.716,2.14 2.978,2.006 3.205,1.826 3.396,1.6 3.587,1.375 3.734,1.123 3.838,0.845 3.942,0.568 3.995,0.286 3.995,0 3.995,-0.312 3.94,-0.608 3.832,-0.888 3.723,-1.168 3.57,-1.417 3.373,-1.636 3.176,-1.856 2.946,-2.027 2.683,-2.154 2.421,-2.28 2.136,-2.342 1.828,-2.342"/>
    </g>
    <g transform="matrix(0.35277777,0,0,-0.35277777,108.5922,169.98708)" id="g7223">
      <path id="path7225" style="fill:#231f20;fill-opacity:1;fill-rule:nonzero;stroke:none" d="m 0,0 c 0,0.386 -0.072,0.731 -0.218,1.035 -0.145,0.303 -0.356,0.54 -0.631,0.712 -0.275,0.171 -0.613,0.257 -1.012,0.257 h -1.203 v -4.02 h 1.203 c 0.404,0 0.744,0.088 1.022,0.266 0.277,0.178 0.487,0.42 0.628,0.726 C -0.07,-0.719 0,-0.377 0,0 m -3.396,-2.316 v 4.619 h 1.535 c 0.491,0 0.897,-0.103 1.22,-0.309 C -0.317,1.788 -0.075,1.511 0.088,1.162 0.251,0.812 0.332,0.426 0.332,0 0.332,-0.469 0.243,-0.876 0.065,-1.223 -0.113,-1.57 -0.366,-1.839 -0.696,-2.029 -1.026,-2.22 -1.414,-2.316 -1.861,-2.316 Z"/>
    </g>
    <g transform="matrix(0.35277777,0,0,-0.35277777,110.14047,170.69841)" id="g7227">
      <path id="path7229" style="fill:#231f20;fill-opacity:1;fill-rule:nonzero;stroke:none" d="m 0,0 v -0.3 h -3.077 v 4.619 h 3.019 V 4.021 H -2.745 V 2.205 h 2.348 V 1.919 H -2.745 V 0 Z"/>
    </g>
    <g transform="matrix(0.35277777,0,0,-0.35277777,112.20132,169.98708)" id="g7231">
      <path id="path7233" style="fill:#231f20;fill-opacity:1;fill-rule:nonzero;stroke:none" d="m 0,0 c 0,0.386 -0.073,0.731 -0.218,1.035 -0.145,0.303 -0.356,0.54 -0.631,0.712 -0.275,0.171 -0.613,0.257 -1.012,0.257 h -1.203 v -4.02 h 1.203 c 0.404,0 0.744,0.088 1.022,0.266 0.277,0.178 0.487,0.42 0.628,0.726 C -0.07,-0.719 0,-0.377 0,0 m -3.396,-2.316 v 4.619 h 1.535 c 0.491,0 0.897,-0.103 1.22,-0.309 C -0.317,1.788 -0.075,1.511 0.088,1.162 0.251,0.812 0.332,0.426 0.332,0 0.332,-0.469 0.243,-0.876 0.065,-1.223 -0.113,-1.57 -0.366,-1.839 -0.696,-2.029 -1.026,-2.22 -1.414,-2.316 -1.861,-2.316 Z"/>
    </g>
    <g transform="matrix(0.35277777,0,0,-0.35277777,113.7496,170.69841)" id="g7235">
      <path id="path7237" style="fill:#231f20;fill-opacity:1;fill-rule:nonzero;stroke:none" d="m 0,0 v -0.3 h -3.077 v 4.619 h 3.019 V 4.021 H -2.745 V 2.205 h 2.348 V 1.919 H -2.745 V 0 Z"/>
    </g>
    <g transform="matrix(0.35277777,0,0,-0.35277777,114.15187,170.08121)" id="g7239">
      <path id="path7241" style="fill:#231f20;fill-opacity:1;fill-rule:nonzero;stroke:none" d="m 0,0 h 1.62 c 0.199,0 0.373,0.055 0.52,0.163 0.147,0.108 0.262,0.25 0.342,0.423 0.08,0.173 0.12,0.358 0.12,0.553 0,0.199 -0.046,0.385 -0.139,0.556 C 2.369,1.866 2.245,2.005 2.091,2.112 1.937,2.218 1.765,2.271 1.574,2.271 H 0 Z M -0.332,-2.049 V 2.57 H 1.587 C 1.787,2.57 1.968,2.529 2.13,2.446 2.293,2.364 2.434,2.255 2.553,2.118 2.673,1.981 2.766,1.828 2.833,1.659 2.901,1.49 2.934,1.317 2.934,1.139 2.934,0.909 2.889,0.694 2.798,0.495 2.706,0.295 2.58,0.128 2.417,-0.006 2.254,-0.141 2.064,-0.223 1.847,-0.253 L 2.999,-2.049 H 2.615 L 1.496,-0.305 H 0 v -1.744 z"/>
    </g>
    <g transform="matrix(0.35277777,0,0,-0.35277777,116.63091,170.69841)" id="g7243">
      <path id="path7245" style="fill:#231f20;fill-opacity:1;fill-rule:nonzero;stroke:none" d="m 0,0 v -0.3 h -3.077 v 4.619 h 3.019 V 4.021 H -2.745 V 2.205 h 2.348 V 1.919 H -2.745 V 0 Z"/>
    </g>
    <g transform="matrix(0.35277777,0,0,-0.35277777,116.79177,169.97559)" id="g7247">
      <path id="path7249" style="fill:#231f20;fill-opacity:1;fill-rule:nonzero;stroke:none" d="M 0,0 C 0,0.278 0.049,0.552 0.146,0.823 0.244,1.094 0.386,1.341 0.573,1.565 0.759,1.788 0.988,1.968 1.259,2.101 1.53,2.236 1.839,2.303 2.186,2.303 2.598,2.303 2.949,2.209 3.24,2.021 3.53,1.832 3.747,1.59 3.891,1.295 L 3.617,1.139 C 3.509,1.352 3.375,1.521 3.217,1.647 3.059,1.772 2.889,1.862 2.707,1.916 2.524,1.97 2.342,1.998 2.16,1.998 1.869,1.998 1.611,1.939 1.383,1.822 1.155,1.705 0.963,1.549 0.807,1.353 0.651,1.158 0.532,0.941 0.452,0.703 0.372,0.464 0.332,0.224 0.332,-0.02 c 0,-0.272 0.048,-0.532 0.143,-0.777 0.096,-0.245 0.226,-0.463 0.394,-0.654 0.167,-0.19 0.362,-0.342 0.585,-0.455 0.223,-0.113 0.465,-0.169 0.725,-0.169 0.187,0 0.377,0.031 0.57,0.094 0.193,0.064 0.374,0.16 0.543,0.294 0.169,0.132 0.306,0.304 0.41,0.516 L 3.988,-1.308 C 3.889,-1.537 3.739,-1.732 3.539,-1.893 3.34,-2.053 3.118,-2.175 2.876,-2.257 2.633,-2.34 2.392,-2.381 2.154,-2.381 1.841,-2.381 1.553,-2.312 1.288,-2.176 1.024,-2.039 0.795,-1.857 0.602,-1.629 0.409,-1.402 0.26,-1.146 0.156,-0.861 0.052,-0.577 0,-0.29 0,0"/>
    </g>
    <g transform="matrix(0.35277777,0,0,-0.35277777,119.75574,169.17462)" id="g7251">
      <path id="path7253" style="fill:#231f20;fill-opacity:1;fill-rule:nonzero;stroke:none" d="m 0,0 v -4.619 h -0.332 v 2.212 H -3.246 V -4.619 H -3.578 V 0 h 0.332 v -2.107 h 2.914 V 0 Z"/>
    </g>
    <g transform="matrix(0.35277777,0,0,-0.35277777,120.20811,169.98922)" id="g7255">
      <path id="path7257" style="fill:#231f20;fill-opacity:1;fill-rule:nonzero;stroke:none" d="m 0,0 c 0,-0.265 0.046,-0.518 0.136,-0.761 0.091,-0.244 0.218,-0.46 0.381,-0.651 0.163,-0.191 0.356,-0.343 0.579,-0.455 0.223,-0.113 0.469,-0.17 0.738,-0.17 0.274,0 0.523,0.059 0.749,0.176 0.225,0.118 0.418,0.274 0.579,0.468 0.16,0.196 0.283,0.414 0.367,0.654 C 3.614,-0.498 3.656,-0.251 3.656,0 3.656,0.264 3.611,0.518 3.523,0.761 3.434,1.004 3.307,1.221 3.142,1.412 2.977,1.602 2.783,1.754 2.56,1.867 2.336,1.979 2.095,2.036 1.834,2.036 1.557,2.036 1.305,1.978 1.08,1.86 0.854,1.744 0.662,1.587 0.504,1.392 0.346,1.197 0.222,0.979 0.133,0.738 0.044,0.498 0,0.251 0,0 m 1.828,-2.342 c -0.321,0 -0.614,0.066 -0.878,0.198 -0.265,0.132 -0.493,0.31 -0.684,0.53 -0.19,0.221 -0.338,0.472 -0.442,0.752 -0.104,0.279 -0.156,0.567 -0.156,0.862 0,0.308 0.054,0.602 0.163,0.881 0.108,0.28 0.261,0.53 0.458,0.748 0.198,0.219 0.427,0.393 0.69,0.521 0.262,0.128 0.547,0.192 0.855,0.192 0.326,0 0.62,-0.067 0.882,-0.202 C 2.978,2.006 3.205,1.826 3.396,1.6 3.587,1.375 3.734,1.123 3.838,0.845 3.942,0.568 3.995,0.286 3.995,0 3.995,-0.312 3.94,-0.608 3.832,-0.888 3.723,-1.168 3.57,-1.417 3.373,-1.636 3.176,-1.856 2.946,-2.027 2.683,-2.154 2.421,-2.28 2.136,-2.342 1.828,-2.342"/>
    </g>
    <path id="path7259" style="fill:#231f20;fill-opacity:1;fill-rule:nonzero;stroke:none;stroke-width:0.35277778" d="m 90.047736,171.71833 h 0.12065 v 1.67816 h -0.12065 z"/>
    <g transform="matrix(0.35277777,0,0,-0.35277777,90.817744,171.98971)" id="g7261">
      <path id="path7263" style="fill:#231f20;fill-opacity:1;fill-rule:nonzero;stroke:none" d="m 0,0 v -3.988 h -0.33 v 4.604 h 0.272 l 3.21,-4.053 v 4.053 h 0.33 V -3.988 H 3.158 Z"/>
    </g>
    <g transform="matrix(0.35277777,0,0,-0.35277777,92.621953,173.3966)" id="g7265">
      <path id="path7267" style="fill:#231f20;fill-opacity:1;fill-rule:nonzero;stroke:none" d="M 0,0 V 4.604 H 2.995 V 4.306 H 0.33 V 2.477 H 2.593 V 2.191 H 0.33 V 0 Z"/>
    </g>
    <g transform="matrix(0.35277777,0,0,-0.35277777,94.084104,172.58449)" id="g7269">
      <path id="path7271" style="fill:#231f20;fill-opacity:1;fill-rule:nonzero;stroke:none" d="M 0,0 C 0,-0.264 0.045,-0.516 0.136,-0.758 0.227,-1.001 0.353,-1.217 0.515,-1.407 0.677,-1.597 0.87,-1.749 1.093,-1.861 1.315,-1.973 1.56,-2.03 1.828,-2.03 c 0.273,0 0.521,0.058 0.746,0.175 0.225,0.117 0.417,0.273 0.577,0.468 0.16,0.194 0.282,0.411 0.366,0.651 C 3.602,-0.496 3.644,-0.25 3.644,0 3.644,0.263 3.6,0.517 3.511,0.759 3.423,1 3.296,1.217 3.132,1.407 2.967,1.597 2.774,1.749 2.551,1.861 2.329,1.974 2.088,2.029 1.828,2.029 1.552,2.029 1.301,1.971 1.076,1.854 0.852,1.738 0.66,1.582 0.502,1.387 0.344,1.193 0.221,0.976 0.133,0.736 0.044,0.496 0,0.251 0,0 m 1.822,-2.334 c -0.32,0 -0.612,0.065 -0.875,0.198 -0.264,0.131 -0.491,0.308 -0.681,0.528 -0.19,0.221 -0.337,0.47 -0.441,0.748 -0.104,0.279 -0.156,0.566 -0.156,0.86 0,0.306 0.054,0.6 0.162,0.879 0.108,0.278 0.261,0.527 0.457,0.745 0.197,0.218 0.426,0.392 0.688,0.519 0.261,0.128 0.546,0.191 0.852,0.191 0.325,0 0.617,-0.067 0.879,-0.201 C 2.969,1.999 3.194,1.82 3.385,1.595 3.575,1.37 3.722,1.12 3.825,0.843 3.929,0.566 3.981,0.285 3.981,0 3.981,-0.311 3.927,-0.606 3.819,-0.885 3.711,-1.164 3.559,-1.412 3.362,-1.631 3.165,-1.849 2.936,-2.021 2.675,-2.147 2.413,-2.272 2.129,-2.334 1.822,-2.334"/>
    </g>
    <g transform="matrix(0.35277777,0,0,-0.35277777,96.078504,172.67588)" id="g7273">
      <path id="path7275" style="fill:#231f20;fill-opacity:1;fill-rule:nonzero;stroke:none" d="M 0,0 H 1.615 C 1.813,0 1.986,0.053 2.133,0.161 2.28,0.27 2.394,0.41 2.474,0.583 c 0.08,0.173 0.12,0.356 0.12,0.551 0,0.199 -0.047,0.384 -0.14,0.554 C 2.361,1.859 2.238,1.998 2.085,2.104 1.931,2.209 1.759,2.263 1.569,2.263 H 0 Z M -0.33,-2.043 V 2.561 H 1.582 C 1.781,2.561 1.962,2.52 2.124,2.438 2.286,2.355 2.426,2.246 2.545,2.11 2.664,1.974 2.757,1.822 2.824,1.653 2.891,1.484 2.925,1.312 2.925,1.134 2.925,0.905 2.879,0.692 2.789,0.492 2.698,0.293 2.571,0.127 2.409,-0.007 2.247,-0.141 2.058,-0.223 1.842,-0.253 l 1.147,-1.79 H 2.607 L 1.492,-0.305 H 0 v -1.738 z"/>
    </g>
    <g transform="matrix(0.35277777,0,0,-0.35277777,99.077115,173.3966)" id="g7277">
      <path id="path7279" style="fill:#231f20;fill-opacity:1;fill-rule:nonzero;stroke:none" d="M 0,0 V 3.961 L -1.809,0.862 H -2.03 L -3.839,3.961 V 0 h -0.33 v 4.604 h 0.33 L -1.919,1.31 0,4.604 H 0.331 V 0 Z"/>
    </g>
    <g transform="matrix(0.35277777,0,0,-0.35277777,100.36069,171.52986)" id="g7281">
      <path id="path7283" style="fill:#231f20;fill-opacity:1;fill-rule:nonzero;stroke:none" d="M 0,0 -0.227,0.104 0.169,0.655 H 0.544 Z M 0.887,-3.502 -0.11,-1.09 -1.112,-3.502 Z m -1.14,2.815 H 0.032 L 1.977,-5.292 H 1.627 L 1,-3.774 h -2.225 l -0.63,-1.518 h -0.356 z"/>
    </g>
    <g transform="matrix(0.35277777,0,0,-0.35277777,102.38038,171.87763)" id="g7285">
      <path id="path7287" style="fill:#231f20;fill-opacity:1;fill-rule:nonzero;stroke:none" d="m 0,0 h -1.686 v -4.306 h -0.33 V 0 H -3.702 V 0.299 H 0 Z"/>
    </g>
    <path id="path7289" style="fill:#231f20;fill-opacity:1;fill-rule:nonzero;stroke:none;stroke-width:0.35277778" d="m 102.7742,171.7723 h 0.11641 v 1.62419 h -0.11641 z"/>
    <g transform="matrix(0.35277777,0,0,-0.35277777,103.36639,172.57081)" id="g7291">
      <path id="path7293" style="fill:#231f20;fill-opacity:1;fill-rule:nonzero;stroke:none" d="m 0,0 c 0,0.276 0.048,0.55 0.146,0.82 0.097,0.27 0.239,0.517 0.425,0.74 0.185,0.222 0.414,0.4 0.684,0.534 0.27,0.134 0.578,0.201 0.924,0.201 0.411,0 0.761,-0.093 1.05,-0.281 C 3.519,1.825 3.735,1.585 3.877,1.29 L 3.605,1.135 C 3.497,1.346 3.364,1.515 3.206,1.64 3.049,1.766 2.879,1.856 2.698,1.91 2.516,1.964 2.334,1.99 2.153,1.99 1.863,1.99 1.605,1.932 1.378,1.815 1.151,1.699 0.96,1.543 0.804,1.349 0.648,1.154 0.531,0.938 0.45,0.7 0.371,0.462 0.331,0.223 0.331,-0.02 c 0,-0.272 0.047,-0.53 0.142,-0.775 0.095,-0.243 0.226,-0.46 0.393,-0.651 0.166,-0.19 0.361,-0.341 0.583,-0.454 0.223,-0.112 0.464,-0.169 0.723,-0.169 0.186,0 0.375,0.032 0.568,0.095 0.192,0.062 0.372,0.159 0.541,0.291 0.169,0.132 0.305,0.304 0.408,0.516 L 3.975,-1.303 C 3.875,-1.532 3.726,-1.727 3.527,-1.887 3.329,-2.046 3.108,-2.168 2.866,-2.25 2.624,-2.332 2.384,-2.373 2.146,-2.373 1.835,-2.373 1.547,-2.305 1.284,-2.169 1.02,-2.033 0.792,-1.851 0.6,-1.624 0.408,-1.397 0.26,-1.142 0.156,-0.859 0.052,-0.576 0,-0.289 0,0"/>
    </g>
    <g transform="matrix(0.35277777,0,0,-0.35277777,105.19555,172.58449)" id="g7295">
      <path id="path7297" style="fill:#231f20;fill-opacity:1;fill-rule:nonzero;stroke:none" d="M 0,0 C 0,-0.264 0.045,-0.516 0.136,-0.758 0.227,-1.001 0.354,-1.217 0.515,-1.407 0.677,-1.597 0.87,-1.749 1.093,-1.861 1.315,-1.973 1.56,-2.03 1.828,-2.03 c 0.273,0 0.521,0.058 0.746,0.175 0.225,0.117 0.417,0.273 0.577,0.468 0.16,0.194 0.282,0.411 0.366,0.651 C 3.602,-0.496 3.644,-0.25 3.644,0 3.644,0.263 3.6,0.517 3.511,0.759 3.423,1 3.296,1.217 3.132,1.407 2.967,1.597 2.774,1.749 2.551,1.861 2.329,1.974 2.088,2.029 1.828,2.029 1.552,2.029 1.301,1.971 1.076,1.854 0.852,1.738 0.66,1.582 0.502,1.387 0.344,1.193 0.221,0.976 0.133,0.736 0.044,0.496 0,0.251 0,0 m 1.822,-2.334 c -0.32,0 -0.612,0.065 -0.875,0.198 -0.264,0.131 -0.491,0.308 -0.681,0.528 -0.19,0.221 -0.337,0.47 -0.441,0.748 -0.104,0.279 -0.156,0.566 -0.156,0.86 0,0.306 0.054,0.6 0.162,0.879 0.109,0.278 0.261,0.527 0.457,0.745 0.197,0.218 0.426,0.392 0.688,0.519 0.261,0.128 0.546,0.191 0.852,0.191 0.325,0 0.617,-0.067 0.879,-0.201 C 2.969,1.999 3.194,1.82 3.385,1.595 3.575,1.37 3.722,1.12 3.825,0.843 3.929,0.566 3.981,0.285 3.981,0 3.981,-0.311 3.927,-0.606 3.819,-0.885 3.711,-1.164 3.559,-1.412 3.362,-1.631 3.165,-1.849 2.936,-2.021 2.675,-2.147 2.413,-2.272 2.129,-2.334 1.822,-2.334"/>
    </g>
    <g transform="matrix(0.35277777,0,0,-0.35277777,108.64698,172.7652)" id="g7299">
      <path id="path7301" style="fill:#231f20;fill-opacity:1;fill-rule:nonzero;stroke:none" d="M 0,0 -0.997,2.412 -1.999,0 Z m -1.14,2.814 h 0.285 L 1.09,-1.79 H 0.74 l -0.628,1.517 h -2.224 l -0.63,-1.517 h -0.356 z"/>
    </g>
    <g transform="matrix(0.35277777,0,0,-0.35277777,109.53718,172.67588)" id="g7303">
      <path id="path7305" style="fill:#231f20;fill-opacity:1;fill-rule:nonzero;stroke:none" d="M 0,0 H 1.615 C 1.813,0 1.986,0.053 2.133,0.161 2.28,0.27 2.394,0.41 2.474,0.583 c 0.08,0.173 0.12,0.356 0.12,0.551 0,0.199 -0.047,0.384 -0.14,0.554 C 2.361,1.859 2.238,1.998 2.085,2.104 1.931,2.209 1.759,2.263 1.569,2.263 H 0 Z M -0.33,-2.043 V 2.561 H 1.582 C 1.781,2.561 1.962,2.52 2.124,2.438 2.286,2.355 2.426,2.246 2.545,2.11 2.664,1.974 2.757,1.822 2.824,1.653 2.891,1.484 2.925,1.312 2.925,1.134 2.925,0.905 2.879,0.692 2.789,0.492 2.698,0.293 2.571,0.127 2.409,-0.007 2.247,-0.141 2.058,-0.223 1.842,-0.253 l 1.147,-1.79 H 2.607 L 1.492,-0.305 H 0 v -1.738 z"/>
    </g>
    <g transform="matrix(0.35277777,0,0,-0.35277777,112.25265,172.7013)" id="g7307">
      <path id="path7309" style="fill:#231f20;fill-opacity:1;fill-rule:nonzero;stroke:none" d="M 0,0 H -1.044 V 0.266 H 0.285 V -1.971 H 0 Z m -1.55,-2.003 c -0.311,0 -0.598,0.066 -0.862,0.2 -0.264,0.135 -0.493,0.313 -0.687,0.536 -0.195,0.222 -0.345,0.473 -0.451,0.752 -0.106,0.279 -0.159,0.563 -0.159,0.852 0,0.303 0.052,0.594 0.156,0.873 0.104,0.279 0.25,0.527 0.441,0.745 0.19,0.218 0.415,0.392 0.674,0.519 0.259,0.128 0.543,0.191 0.849,0.191 0.459,0 0.829,-0.093 1.113,-0.281 C -0.193,2.195 0.022,1.955 0.169,1.66 L -0.103,1.498 C -0.259,1.801 -0.465,2.02 -0.723,2.156 -0.98,2.292 -1.271,2.36 -1.595,2.36 -1.867,2.36 -2.114,2.303 -2.334,2.189 -2.555,2.074 -2.743,1.92 -2.898,1.728 -3.054,1.536 -3.173,1.319 -3.255,1.077 -3.337,0.835 -3.378,0.586 -3.378,0.331 c 0,-0.273 0.048,-0.529 0.142,-0.772 0.096,-0.242 0.227,-0.458 0.396,-0.648 0.169,-0.19 0.365,-0.34 0.59,-0.448 0.225,-0.108 0.465,-0.162 0.72,-0.162 0.298,0 0.579,0.073 0.843,0.218 0.264,0.144 0.516,0.372 0.759,0.684 v -0.37 C -0.387,-1.725 -0.927,-2.003 -1.55,-2.003"/>
    </g>
    <g transform="matrix(0.35277777,0,0,-0.35277777,113.95601,173.29124)" id="g7311">
      <path id="path7313" style="fill:#231f20;fill-opacity:1;fill-rule:nonzero;stroke:none" d="m 0,0 v -0.299 h -3.067 v 4.605 h 3.009 V 4.007 H -2.737 V 2.198 h 2.341 V 1.913 H -2.737 V 0 Z"/>
    </g>
    <g transform="matrix(0.35277777,0,0,-0.35277777,114.49678,171.98971)" id="g7315">
      <path id="path7317" style="fill:#231f20;fill-opacity:1;fill-rule:nonzero;stroke:none" d="m 0,0 v -3.988 h -0.33 v 4.604 h 0.272 l 3.21,-4.053 v 4.053 h 0.33 V -3.988 H 3.158 Z"/>
    </g>
    <g transform="matrix(0.35277777,0,0,-0.35277777,117.42607,171.87763)" id="g7319">
      <path id="path7321" style="fill:#231f20;fill-opacity:1;fill-rule:nonzero;stroke:none" d="m 0,0 h -1.686 v -4.306 h -0.33 V 0 H -3.702 V 0.299 H 0 Z"/>
    </g>
    <path id="path7323" style="fill:#231f20;fill-opacity:1;fill-rule:nonzero;stroke:none;stroke-width:0.35277778" d="m 117.82087,171.7723 h 0.11642 v 1.62419 h -0.11642 z"/>
    <g transform="matrix(0.35277777,0,0,-0.35277777,118.63123,171.98971)" id="g7325">
      <path id="path7327" style="fill:#231f20;fill-opacity:1;fill-rule:nonzero;stroke:none" d="m 0,0 v -3.988 h -0.33 v 4.604 h 0.272 l 3.21,-4.053 v 4.053 h 0.33 V -3.988 H 3.158 Z"/>
    </g>
    <g transform="matrix(0.35277777,0,0,-0.35277777,120.4516,172.58449)" id="g7329">
      <path id="path7331" style="fill:#231f20;fill-opacity:1;fill-rule:nonzero;stroke:none" d="M 0,0 C 0,-0.264 0.046,-0.516 0.136,-0.758 0.227,-1.001 0.354,-1.217 0.515,-1.407 0.677,-1.597 0.87,-1.749 1.093,-1.861 1.315,-1.973 1.56,-2.03 1.828,-2.03 c 0.273,0 0.521,0.058 0.746,0.175 0.225,0.117 0.418,0.273 0.577,0.468 0.16,0.194 0.282,0.411 0.366,0.651 C 3.602,-0.496 3.644,-0.25 3.644,0 3.644,0.263 3.6,0.517 3.511,0.759 3.423,1 3.296,1.217 3.132,1.407 2.967,1.597 2.774,1.749 2.551,1.861 2.329,1.974 2.088,2.029 1.828,2.029 1.552,2.029 1.301,1.971 1.076,1.854 0.852,1.738 0.66,1.582 0.502,1.387 0.345,1.193 0.221,0.976 0.133,0.736 0.044,0.496 0,0.251 0,0 m 1.822,-2.334 c -0.32,0 -0.612,0.065 -0.875,0.198 -0.264,0.131 -0.491,0.308 -0.681,0.528 -0.19,0.221 -0.337,0.47 -0.441,0.748 -0.104,0.279 -0.156,0.566 -0.156,0.86 0,0.306 0.054,0.6 0.162,0.879 0.109,0.278 0.261,0.527 0.457,0.745 0.197,0.218 0.426,0.392 0.688,0.519 0.261,0.128 0.546,0.191 0.852,0.191 0.325,0 0.617,-0.067 0.879,-0.201 C 2.969,1.999 3.194,1.82 3.385,1.595 3.575,1.37 3.722,1.12 3.826,0.843 3.929,0.566 3.981,0.285 3.981,0 3.981,-0.311 3.927,-0.606 3.819,-0.885 3.711,-1.164 3.559,-1.412 3.362,-1.631 3.165,-1.849 2.936,-2.021 2.675,-2.147 2.413,-2.272 2.129,-2.334 1.822,-2.334"/>
    </g>
  </g>
</svg>