<?xml version="1.0" standalone="no"?>
<!DOCTYPE svg PUBLIC "-//W3C//DTD SVG 1.1//EN" "http://www.w3.org/Graphics/SVG/1.1/DTD/svg11.dtd">
<svg xmlns:dc="http://purl.org/dc/elements/1.1/" xmlns:cc="http://creativecommons.org/ns#" xmlns:rdf="http://www.w3.org/1999/02/22-rdf-syntax-ns#" xmlns:svg="http://www.w3.org/2000/svg" xmlns="http://www.w3.org/2000/svg" id="svg8564" version="1.1" viewBox="0 0 115.81451 35.085159" height="35.08515930175781" width="115.81450653076172">
  <g transform="translate(116.87154,-121.46338)" id="layer1">
    <g transform="matrix(0.35277777,0,0,-0.35277777,-99.328961,147.10785)" id="g6953">
      <path id="path6955" style="fill:#231f20;fill-opacity:1;fill-rule:nonzero;stroke:none" d="m 0,0 c -12.684,0 -22.966,10.282 -22.966,22.966 0,12.684 10.282,22.967 22.966,22.967 12.684,0 22.966,-10.283 22.966,-22.967 C 22.966,10.282 12.684,0 0,0 m 0,72.693 c -27.464,0 -49.727,-22.263 -49.727,-49.727 V -26.761 H 0 c 27.464,0 49.727,22.264 49.727,49.727 v 49.727 z"/>
    </g>
    <g transform="matrix(0.35277777,0,0,-0.35277777,-68.784851,135.90695)" id="g6957">
      <path id="path6959" style="fill:#231f20;fill-opacity:1;fill-rule:nonzero;stroke:none" d="m 0,0 c -5.675,0 -10.276,4.601 -10.276,10.276 0,5.676 4.601,10.276 10.276,10.276 5.675,0 10.276,-4.6 10.276,-10.276 C 10.276,4.601 5.675,0 0,0 m 0,34.373 c -13.308,0 -24.097,-10.789 -24.097,-24.097 0,-13.308 10.789,-24.097 24.097,-24.097 13.308,0 24.097,10.789 24.097,24.097 0,13.308 -10.789,24.097 -24.097,24.097"/>
    </g>
    <g transform="matrix(0.35277777,0,0,-0.35277777,-59.136741,139.20651)" id="g6961">
      <path id="path6963" style="fill:#231f20;fill-opacity:1;fill-rule:nonzero;stroke:none" d="m 0,0 c 0,-2.582 -2.093,-4.675 -4.675,-4.675 -2.581,0 -4.674,2.093 -4.674,4.675 0,2.582 2.093,4.675 4.674,4.675 C -2.093,4.675 0,2.582 0,0"/>
    </g>
    <g transform="matrix(0.35277777,0,0,-0.35277777,-47.384181,135.64099)" id="g6965">
      <path id="path6967" style="fill:#231f20;fill-opacity:1;fill-rule:nonzero;stroke:none" d="m 0,0 h -9.275 v 9.333 9.333 H 0 c 5.123,0 9.275,-4.179 9.275,-9.333 C 9.275,4.178 5.123,0 0,0 M 0.474,32.478 H -22.671 V 9.333 -13.812 H 0.474 c 12.783,0 23.145,10.362 23.145,23.145 0,12.782 -10.362,23.145 -23.145,23.145"/>
    </g>
    <g transform="matrix(0.35277777,0,0,-0.35277777,-37.848841,139.20651)" id="g6969">
      <path id="path6971" style="fill:#231f20;fill-opacity:1;fill-rule:nonzero;stroke:none" d="m 0,0 c 0,-2.582 -2.093,-4.675 -4.675,-4.675 -2.581,0 -4.674,2.093 -4.674,4.675 0,2.582 2.093,4.675 4.674,4.675 C -2.093,4.675 0,2.582 0,0"/>
    </g>
    <path id="path6973" style="fill:#231f20;fill-opacity:1;fill-rule:nonzero;stroke:none;stroke-width:0.35277778" d="m -28.598741,140.51341 h -5.7157 v -16.36148 h 5.7157 z"/>
    <g transform="matrix(0.35277777,0,0,-0.35277777,-24.752761,139.20651)" id="g6975">
      <path id="path6977" style="fill:#231f20;fill-opacity:1;fill-rule:nonzero;stroke:none" d="m 0,0 c 0,-2.582 -2.093,-4.675 -4.675,-4.675 -2.581,0 -4.674,2.093 -4.674,4.675 0,2.582 2.093,4.675 4.674,4.675 C -2.093,4.675 0,2.582 0,0"/>
    </g>
    <g transform="matrix(0.35277777,0,0,-0.35277777,-3.766041,137.55742)" id="g6979">
      <path id="path6981" style="fill:#231f20;fill-opacity:1;fill-rule:nonzero;stroke:none" d="m 0,0 c -2.582,0 -4.675,-2.093 -4.675,-4.675 0,-2.581 2.093,-4.674 4.675,-4.674 2.582,0 4.675,2.093 4.675,4.674 C 4.675,-2.093 2.582,0 0,0"/>
    </g>
    <g transform="matrix(0.35277777,0,0,-0.35277777,-10.874701,133.71916)" id="g6983">
      <path id="path6985" style="fill:#231f20;fill-opacity:1;fill-rule:nonzero;stroke:none" d="m 0,0 h -9.508 -9.158 v 3.734 c 0,4.796 4.179,8.683 9.333,8.683 C -4.178,12.417 0,8.53 0,3.734 Z m -9.333,27.068 c -12.782,0 -23.145,-10.362 -23.145,-23.145 v -23.144 h 13.814 v 5.901 h 9.156 9.44 v -5.901 h 13.88 V 3.923 c 0,12.783 -10.362,23.145 -23.145,23.145"/>
    </g>
    <g transform="matrix(0.35277777,0,0,-0.35277777,-75.820731,147.60262)" id="g6987">
      <path id="path6989" style="fill:#231f20;fill-opacity:1;fill-rule:nonzero;stroke:none" d="m 0,0 c 0,-0.615 0.108,-1.206 0.32,-1.772 0.212,-0.566 0.507,-1.071 0.886,-1.514 0.377,-0.445 0.827,-0.797 1.346,-1.061 0.52,-0.261 1.093,-0.394 1.719,-0.394 0.637,0 1.218,0.138 1.742,0.409 0.524,0.273 0.975,0.637 1.347,1.09 0.374,0.456 0.659,0.963 0.856,1.524 0.197,0.559 0.295,1.132 0.295,1.718 0,0.615 -0.103,1.206 -0.31,1.772 C 7.995,2.336 7.699,2.84 7.315,3.286 6.931,3.729 6.478,4.083 5.959,4.347 5.44,4.608 4.876,4.741 4.271,4.741 3.626,4.741 3.04,4.603 2.516,4.33 1.989,4.059 1.543,3.695 1.174,3.242 0.805,2.786 0.519,2.279 0.313,1.718 0.103,1.159 0,0.586 0,0 m 4.256,-5.452 c -0.746,0 -1.428,0.155 -2.043,0.463 -0.618,0.307 -1.147,0.718 -1.59,1.233 -0.446,0.514 -0.788,1.098 -1.032,1.75 -0.241,0.65 -0.361,1.319 -0.361,2.006 0,0.716 0.125,1.4 0.376,2.053 0.254,0.65 0.611,1.23 1.068,1.74 0.461,0.509 0.995,0.913 1.605,1.211 0.611,0.298 1.275,0.448 1.992,0.448 0.758,0 1.442,-0.158 2.052,-0.47 C 6.934,4.669 7.46,4.251 7.906,3.724 8.349,3.2 8.694,2.614 8.935,1.969 9.179,1.322 9.299,0.667 9.299,0 9.299,-0.726 9.171,-1.415 8.92,-2.068 8.667,-2.718 8.312,-3.298 7.852,-3.808 7.394,-4.317 6.857,-4.719 6.247,-5.011 5.637,-5.304 4.972,-5.452 4.256,-5.452"/>
    </g>
    <g transform="matrix(0.35277777,0,0,-0.35277777,-69.203211,148.47881)" id="g6991">
      <path id="path6993" style="fill:#231f20;fill-opacity:1;fill-rule:nonzero;stroke:none" d="M 0,0 C 0,0.384 -0.089,0.741 -0.266,1.076 -0.443,1.408 -0.682,1.681 -0.985,1.893 -1.287,2.104 -1.629,2.21 -2.013,2.21 h -4.362 v -4.406 h 4.256 c 0.394,0 0.75,0.104 1.073,0.311 0.325,0.206 0.578,0.48 0.765,0.817 C -0.094,-0.729 0,-0.374 0,0 m -6.375,7.163 v -4.3 h 3.936 c 0.394,0 0.741,0.103 1.038,0.31 0.298,0.207 0.532,0.475 0.704,0.802 0.173,0.327 0.259,0.675 0.259,1.036 0,0.394 -0.081,0.754 -0.244,1.076 -0.162,0.322 -0.386,0.583 -0.674,0.78 -0.288,0.197 -0.618,0.296 -0.992,0.296 z m 7.148,-7.269 c 0,-0.524 -0.131,-0.997 -0.387,-1.415 -0.258,-0.418 -0.605,-0.753 -1.046,-1 -0.438,-0.248 -0.925,-0.371 -1.459,-0.371 H -7.148 V 7.859 h 5.012 c 0.507,0 0.942,-0.133 1.311,-0.401 C -0.458,7.19 -0.175,6.848 0.022,6.429 0.219,6.008 0.318,5.573 0.318,5.117 0.318,4.583 0.182,4.086 -0.091,3.626 -0.364,3.168 -0.743,2.831 -1.226,2.619 -0.61,2.439 -0.123,2.097 0.234,1.597 0.593,1.098 0.773,0.529 0.773,-0.106"/>
    </g>
    <g transform="matrix(0.35277777,0,0,-0.35277777,-65.887051,146.33664)" id="g6995">
      <path id="path6997" style="fill:#231f20;fill-opacity:1;fill-rule:nonzero;stroke:none" d="m 0,0 c -0.172,0.192 -0.364,0.362 -0.576,0.507 -0.212,0.148 -0.438,0.268 -0.682,0.364 -0.241,0.096 -0.504,0.168 -0.787,0.219 -0.281,0.05 -0.584,0.077 -0.909,0.077 -1.048,0 -1.814,-0.2 -2.294,-0.598 -0.48,-0.399 -0.718,-0.936 -0.718,-1.61 0,-0.453 0.108,-0.815 0.324,-1.081 0.217,-0.268 0.559,-0.482 1.024,-0.642 0.463,-0.163 1.064,-0.318 1.802,-0.47 0.775,-0.16 1.447,-0.35 2.014,-0.566 0.566,-0.217 1.001,-0.512 1.309,-0.887 C 0.815,-5.058 0.97,-5.563 0.97,-6.198 0.97,-6.67 0.879,-7.086 0.697,-7.446 0.514,-7.802 0.251,-8.098 -0.091,-8.329 -0.433,-8.561 -0.839,-8.738 -1.309,-8.858 -1.78,-8.979 -2.301,-9.041 -2.877,-9.041 c -0.557,0 -1.086,0.062 -1.59,0.183 -0.505,0.12 -0.98,0.297 -1.423,0.529 -0.446,0.234 -0.859,0.531 -1.243,0.893 l 0.408,0.623 c 0.224,-0.244 0.473,-0.458 0.751,-0.645 0.278,-0.187 0.581,-0.344 0.908,-0.478 0.328,-0.13 0.68,-0.233 1.054,-0.31 0.372,-0.076 0.76,-0.113 1.164,-0.113 0.94,0 1.674,0.175 2.203,0.522 0.532,0.347 0.795,0.864 0.795,1.548 0,0.475 -0.12,0.857 -0.362,1.15 -0.243,0.293 -0.615,0.531 -1.12,0.718 -0.507,0.187 -1.137,0.362 -1.892,0.522 -0.759,0.163 -1.403,0.342 -1.933,0.544 -0.529,0.202 -0.928,0.475 -1.196,0.817 -0.268,0.342 -0.401,0.808 -0.401,1.391 0,0.645 0.16,1.191 0.477,1.642 0.318,0.448 0.766,0.787 1.339,1.019 0.576,0.234 1.239,0.349 1.984,0.349 0.466,0 0.896,-0.046 1.295,-0.137 C -1.26,1.635 -0.891,1.497 -0.554,1.31 -0.214,1.123 0.101,0.889 0.394,0.605 Z"/>
    </g>
    <g transform="matrix(0.35277777,0,0,-0.35277777,-62.283531,149.25333)" id="g6999">
      <path id="path7001" style="fill:#231f20;fill-opacity:1;fill-rule:nonzero;stroke:none" d="m 0,0 v -0.697 h -7.163 v 10.752 h 7.028 V 9.358 H -6.39 V 5.135 h 5.467 V 4.468 H -6.39 V 0 Z"/>
    </g>
    <g transform="matrix(0.35277777,0,0,-0.35277777,-61.307561,147.81621)" id="g7003">
      <path id="path7005" style="fill:#231f20;fill-opacity:1;fill-rule:nonzero;stroke:none" d="M 0,0 H 3.771 C 4.234,0 4.637,0.125 4.982,0.379 5.324,0.63 5.59,0.96 5.777,1.364 5.964,1.767 6.057,2.196 6.057,2.651 6.057,3.114 5.949,3.544 5.73,3.946 5.513,4.342 5.226,4.667 4.869,4.913 4.509,5.161 4.108,5.284 3.665,5.284 H 0 Z M -0.773,-4.77 V 5.981 H 3.695 C 4.16,5.981 4.581,5.885 4.96,5.693 5.339,5.501 5.666,5.248 5.944,4.928 6.22,4.61 6.437,4.256 6.594,3.862 6.752,3.468 6.828,3.064 6.828,2.651 6.828,2.114 6.722,1.615 6.51,1.149 6.299,0.687 6.003,0.298 5.624,-0.015 5.248,-0.327 4.805,-0.52 4.3,-0.591 L 6.98,-4.77 H 6.087 L 3.483,-0.711 H 0 V -4.77 Z"/>
    </g>
    <g transform="matrix(0.35277777,0,0,-0.35277777,-58.246711,145.70619)" id="g7007">
      <path id="path7009" style="fill:#231f20;fill-opacity:1;fill-rule:nonzero;stroke:none" d="M 0,0 4.091,-9.782 8.179,0 H 8.996 L 4.467,-10.751 H 3.727 L -0.817,0 Z"/>
    </g>
    <g transform="matrix(0.35277777,0,0,-0.35277777,-53.134851,148.02465)" id="g7011">
      <path id="path7013" style="fill:#231f20;fill-opacity:1;fill-rule:nonzero;stroke:none" d="M 0,0 -2.331,5.634 -4.669,0 Z m -2.663,6.572 h 0.667 L 2.545,-4.179 H 1.728 l -1.465,3.544 h -5.196 l -1.472,-3.544 h -0.832 z"/>
    </g>
    <g transform="matrix(0.35277777,0,0,-0.35277777,-49.778821,145.95201)" id="g7015">
      <path id="path7017" style="fill:#231f20;fill-opacity:1;fill-rule:nonzero;stroke:none" d="M 0,0 H -3.938 V -10.055 H -4.711 V 0 H -8.647 V 0.697 H 0 Z"/>
    </g>
    <g transform="matrix(0.35277777,0,0,-0.35277777,-49.384621,147.60262)" id="g7019">
      <path id="path7021" style="fill:#231f20;fill-opacity:1;fill-rule:nonzero;stroke:none" d="m 0,0 c 0,-0.615 0.108,-1.206 0.32,-1.772 0.212,-0.566 0.507,-1.071 0.886,-1.514 0.377,-0.445 0.827,-0.797 1.346,-1.061 0.52,-0.261 1.093,-0.394 1.719,-0.394 0.637,0 1.218,0.138 1.742,0.409 0.524,0.273 0.975,0.637 1.347,1.09 0.374,0.456 0.659,0.963 0.856,1.524 C 8.413,-1.159 8.512,-0.586 8.512,0 8.512,0.615 8.408,1.206 8.201,1.772 7.995,2.336 7.699,2.84 7.315,3.286 6.931,3.729 6.478,4.083 5.959,4.347 5.44,4.608 4.876,4.741 4.271,4.741 3.626,4.741 3.04,4.603 2.516,4.33 1.989,4.059 1.543,3.695 1.174,3.242 0.805,2.786 0.519,2.279 0.313,1.718 0.103,1.159 0,0.586 0,0 m 4.256,-5.452 c -0.746,0 -1.428,0.155 -2.043,0.463 -0.618,0.307 -1.147,0.718 -1.59,1.233 -0.446,0.514 -0.788,1.098 -1.032,1.75 -0.241,0.65 -0.361,1.319 -0.361,2.006 0,0.716 0.125,1.4 0.376,2.053 0.254,0.65 0.611,1.23 1.068,1.74 0.461,0.509 0.995,0.913 1.605,1.211 0.611,0.298 1.275,0.448 1.992,0.448 0.758,0 1.442,-0.158 2.052,-0.47 C 6.934,4.669 7.461,4.251 7.906,3.724 8.349,3.2 8.694,2.614 8.935,1.969 9.179,1.322 9.299,0.667 9.299,0 9.299,-0.726 9.171,-1.415 8.92,-2.068 8.667,-2.718 8.312,-3.298 7.852,-3.808 7.394,-4.317 6.857,-4.719 6.247,-5.011 5.637,-5.304 4.972,-5.452 4.256,-5.452"/>
    </g>
    <g transform="matrix(0.35277777,0,0,-0.35277777,-45.015181,147.81621)" id="g7023">
      <path id="path7025" style="fill:#231f20;fill-opacity:1;fill-rule:nonzero;stroke:none" d="M 0,0 H 3.771 C 4.234,0 4.637,0.125 4.982,0.379 5.324,0.63 5.59,0.96 5.777,1.364 5.964,1.767 6.057,2.196 6.057,2.651 6.057,3.114 5.949,3.544 5.73,3.946 5.514,4.342 5.226,4.667 4.869,4.913 4.509,5.161 4.108,5.284 3.665,5.284 H 0 Z M -0.773,-4.77 V 5.981 H 3.695 C 4.16,5.981 4.581,5.885 4.96,5.693 5.339,5.501 5.666,5.248 5.944,4.928 6.22,4.61 6.437,4.256 6.594,3.862 6.752,3.468 6.828,3.064 6.828,2.651 6.828,2.114 6.722,1.615 6.51,1.149 6.299,0.687 6.003,0.298 5.624,-0.015 5.248,-0.327 4.805,-0.52 4.3,-0.591 L 6.981,-4.77 H 6.087 L 3.483,-0.711 H 0 V -4.77 Z"/>
    </g>
    <path id="path7027" style="fill:#231f20;fill-opacity:1;fill-rule:nonzero;stroke:none;stroke-width:0.35277778" d="m -41.737241,145.7063 h 0.2727 v 3.79271 h -0.2727 z"/>
    <g transform="matrix(0.35277777,0,0,-0.35277777,-40.372221,147.60262)" id="g7029">
      <path id="path7031" style="fill:#231f20;fill-opacity:1;fill-rule:nonzero;stroke:none" d="m 0,0 c 0,-0.615 0.108,-1.206 0.32,-1.772 0.212,-0.566 0.507,-1.071 0.886,-1.514 0.377,-0.445 0.827,-0.797 1.346,-1.061 0.52,-0.261 1.093,-0.394 1.719,-0.394 0.637,0 1.218,0.138 1.742,0.409 0.524,0.273 0.975,0.637 1.347,1.09 0.374,0.456 0.659,0.963 0.856,1.524 C 8.413,-1.159 8.512,-0.586 8.512,0 8.512,0.615 8.408,1.206 8.201,1.772 7.995,2.336 7.699,2.84 7.315,3.286 6.931,3.729 6.478,4.083 5.959,4.347 5.44,4.608 4.876,4.741 4.271,4.741 3.626,4.741 3.04,4.603 2.516,4.33 1.989,4.059 1.543,3.695 1.174,3.242 0.805,2.786 0.519,2.279 0.313,1.718 0.103,1.159 0,0.586 0,0 m 4.256,-5.452 c -0.746,0 -1.428,0.155 -2.043,0.463 -0.618,0.307 -1.147,0.718 -1.59,1.233 -0.446,0.514 -0.788,1.098 -1.032,1.75 -0.241,0.65 -0.361,1.319 -0.361,2.006 0,0.716 0.125,1.4 0.376,2.053 0.254,0.65 0.611,1.23 1.068,1.74 0.461,0.509 0.995,0.913 1.605,1.211 0.611,0.298 1.275,0.448 1.992,0.448 0.758,0 1.442,-0.158 2.052,-0.47 C 6.934,4.669 7.461,4.251 7.906,3.724 8.349,3.2 8.694,2.614 8.935,1.969 9.179,1.322 9.299,0.667 9.299,0 9.299,-0.726 9.171,-1.415 8.92,-2.068 8.667,-2.718 8.312,-3.298 7.852,-3.808 7.394,-4.317 6.857,-4.719 6.247,-5.011 5.637,-5.304 4.972,-5.452 4.256,-5.452"/>
    </g>
    <g transform="matrix(0.35277777,0,0,-0.35277777,-32.305501,147.59746)" id="g7033">
      <path id="path7035" style="fill:#231f20;fill-opacity:1;fill-rule:nonzero;stroke:none" d="m 0,0 c 0,0.898 -0.17,1.701 -0.51,2.407 -0.337,0.707 -0.827,1.26 -1.467,1.659 -0.642,0.399 -1.427,0.598 -2.355,0.598 h -2.801 v -9.358 h 2.801 c 0.938,0 1.73,0.207 2.378,0.621 0.645,0.413 1.132,0.977 1.462,1.688 C -0.165,-1.674 0,-0.879 0,0 M -7.906,-5.39 V 5.361 h 3.574 c 1.14,0 2.087,-0.239 2.84,-0.719 C -0.741,4.162 -0.175,3.515 0.204,2.703 0.581,1.89 0.77,0.99 0.77,0 0.77,-1.09 0.564,-2.038 0.15,-2.845 -0.263,-3.655 -0.854,-4.28 -1.622,-4.723 -2.388,-5.169 -3.293,-5.39 -4.332,-5.39 Z"/>
    </g>
    <g transform="matrix(0.35277777,0,0,-0.35277777,-28.665471,149.25333)" id="g7037">
      <path id="path7039" style="fill:#231f20;fill-opacity:1;fill-rule:nonzero;stroke:none" d="m 0,0 v -0.697 h -7.163 v 10.752 h 7.028 V 9.358 H -6.39 V 5.135 h 5.467 V 4.468 H -6.39 V 0 Z"/>
    </g>
    <g transform="matrix(0.35277777,0,0,-0.35277777,-23.868021,147.59746)" id="g7041">
      <path id="path7043" style="fill:#231f20;fill-opacity:1;fill-rule:nonzero;stroke:none" d="m 0,0 c 0,0.898 -0.17,1.701 -0.51,2.407 -0.337,0.707 -0.827,1.26 -1.467,1.659 -0.642,0.399 -1.427,0.598 -2.355,0.598 h -2.801 v -9.358 h 2.801 c 0.938,0 1.73,0.207 2.378,0.621 0.645,0.413 1.132,0.977 1.462,1.688 C -0.165,-1.674 0,-0.879 0,0 M -7.906,-5.39 V 5.361 h 3.574 c 1.14,0 2.087,-0.239 2.84,-0.719 C -0.741,4.162 -0.175,3.515 0.204,2.703 0.581,1.89 0.77,0.99 0.77,0 0.77,-1.09 0.564,-2.038 0.15,-2.845 -0.263,-3.655 -0.854,-4.28 -1.622,-4.723 -2.388,-5.169 -3.293,-5.39 -4.332,-5.39 Z"/>
    </g>
    <g transform="matrix(0.35277777,0,0,-0.35277777,-20.227991,149.25333)" id="g7045">
      <path id="path7047" style="fill:#231f20;fill-opacity:1;fill-rule:nonzero;stroke:none" d="m 0,0 v -0.697 h -7.163 v 10.752 h 7.028 V 9.358 H -6.39 V 5.135 h 5.467 V 4.468 H -6.39 V 0 Z"/>
    </g>
    <g transform="matrix(0.35277777,0,0,-0.35277777,-19.251121,147.81621)" id="g7049">
      <path id="path7051" style="fill:#231f20;fill-opacity:1;fill-rule:nonzero;stroke:none" d="M 0,0 H 3.771 C 4.234,0 4.637,0.125 4.982,0.379 5.324,0.63 5.59,0.96 5.777,1.364 5.964,1.767 6.057,2.196 6.057,2.651 6.057,3.114 5.949,3.544 5.73,3.946 5.513,4.342 5.226,4.667 4.869,4.913 4.509,5.161 4.108,5.284 3.665,5.284 H 0 Z M -0.773,-4.77 V 5.981 H 3.695 C 4.16,5.981 4.581,5.885 4.96,5.693 5.339,5.501 5.666,5.248 5.944,4.928 6.22,4.61 6.437,4.256 6.594,3.862 6.752,3.468 6.828,3.064 6.828,2.651 6.828,2.114 6.722,1.615 6.51,1.149 6.299,0.687 6.003,0.298 5.624,-0.015 5.248,-0.327 4.805,-0.52 4.3,-0.591 L 6.981,-4.77 H 6.087 L 3.483,-0.711 H 0 V -4.77 Z"/>
    </g>
    <g transform="matrix(0.35277777,0,0,-0.35277777,-13.444651,149.25333)" id="g7053">
      <path id="path7055" style="fill:#231f20;fill-opacity:1;fill-rule:nonzero;stroke:none" d="m 0,0 v -0.697 h -7.163 v 10.752 h 7.028 V 9.358 H -6.39 V 5.135 h 5.467 V 4.468 H -6.39 V 0 Z"/>
    </g>
    <g transform="matrix(0.35277777,0,0,-0.35277777,-13.028701,147.57052)" id="g7057">
      <path id="path7059" style="fill:#231f20;fill-opacity:1;fill-rule:nonzero;stroke:none" d="m 0,0 c 0,0.645 0.113,1.285 0.34,1.915 0.226,0.63 0.558,1.206 0.992,1.725 0.433,0.522 0.967,0.938 1.597,1.251 0.63,0.312 1.351,0.47 2.159,0.47 0.957,0 1.777,-0.219 2.451,-0.66 C 8.216,4.263 8.721,3.699 9.055,3.013 L 8.418,2.651 C 8.167,3.143 7.857,3.537 7.488,3.83 7.118,4.123 6.722,4.332 6.299,4.46 5.875,4.585 5.45,4.65 5.026,4.65 4.349,4.65 3.746,4.512 3.217,4.239 2.688,3.968 2.24,3.604 1.878,3.151 1.514,2.695 1.238,2.191 1.051,1.634 0.864,1.081 0.77,0.519 0.77,-0.047 c 0,-0.635 0.114,-1.238 0.335,-1.809 0.222,-0.569 0.527,-1.078 0.916,-1.521 0.389,-0.446 0.842,-0.798 1.363,-1.061 0.52,-0.261 1.083,-0.394 1.689,-0.394 0.433,0 0.874,0.074 1.324,0.222 0.448,0.145 0.871,0.371 1.265,0.679 0.394,0.308 0.712,0.712 0.953,1.206 l 0.667,-0.32 C 9.051,-3.579 8.701,-4.034 8.236,-4.406 7.773,-4.78 7.259,-5.063 6.693,-5.255 6.126,-5.447 5.568,-5.543 5.011,-5.543 c -0.726,0 -1.398,0.16 -2.013,0.477 C 2.383,-4.748 1.849,-4.325 1.401,-3.793 0.95,-3.264 0.606,-2.668 0.362,-2.006 0.121,-1.346 0,-0.677 0,0"/>
    </g>
    <g transform="matrix(0.35277777,0,0,-0.35277777,-6.091701,145.70619)" id="g7061">
      <path id="path7063" style="fill:#231f20;fill-opacity:1;fill-rule:nonzero;stroke:none" d="m 0,0 v -10.751 h -0.773 v 5.149 h -6.783 v -5.149 H -8.329 V 0 h 0.773 v -4.906 h 6.783 V 0 Z"/>
    </g>
    <g transform="matrix(0.35277777,0,0,-0.35277777,-5.002801,147.60262)" id="g7065">
      <path id="path7067" style="fill:#231f20;fill-opacity:1;fill-rule:nonzero;stroke:none" d="m 0,0 c 0,-0.615 0.108,-1.206 0.32,-1.772 0.212,-0.566 0.507,-1.071 0.886,-1.514 0.377,-0.445 0.827,-0.797 1.346,-1.061 0.52,-0.261 1.093,-0.394 1.719,-0.394 0.637,0 1.218,0.138 1.742,0.409 0.524,0.273 0.975,0.637 1.347,1.09 0.374,0.456 0.659,0.963 0.856,1.524 0.197,0.559 0.295,1.132 0.295,1.718 0,0.615 -0.103,1.206 -0.31,1.772 C 7.995,2.336 7.699,2.84 7.315,3.286 6.931,3.729 6.478,4.083 5.959,4.347 5.44,4.608 4.876,4.741 4.271,4.741 3.626,4.741 3.04,4.603 2.516,4.33 1.989,4.059 1.543,3.695 1.174,3.242 0.805,2.786 0.519,2.279 0.313,1.718 0.103,1.159 0,0.586 0,0 m 4.256,-5.452 c -0.746,0 -1.428,0.155 -2.043,0.463 -0.618,0.307 -1.147,0.718 -1.59,1.233 -0.446,0.514 -0.788,1.098 -1.032,1.75 -0.241,0.65 -0.361,1.319 -0.361,2.006 0,0.716 0.125,1.4 0.376,2.053 0.254,0.65 0.611,1.23 1.068,1.74 0.461,0.509 0.995,0.913 1.605,1.211 0.611,0.298 1.275,0.448 1.992,0.448 0.758,0 1.442,-0.158 2.052,-0.47 C 6.934,4.669 7.46,4.251 7.906,3.724 8.349,3.2 8.694,2.614 8.935,1.969 9.179,1.322 9.299,0.667 9.299,0 9.299,-0.726 9.171,-1.415 8.92,-2.068 8.667,-2.718 8.312,-3.298 7.852,-3.808 7.394,-4.317 6.857,-4.719 6.247,-5.011 5.637,-5.304 4.972,-5.452 4.256,-5.452"/>
    </g>
    <path id="path7069" style="fill:#231f20;fill-opacity:1;fill-rule:nonzero;stroke:none;stroke-width:0.35277778" d="m -75.816281,151.62626 h 0.28046 v 3.90667 h -0.28046 z"/>
    <g transform="matrix(0.35277777,0,0,-0.35277777,-73.983351,152.25857)" id="g7071">
      <path id="path7073" style="fill:#231f20;fill-opacity:1;fill-rule:nonzero;stroke:none" d="M 0,0 V -9.282 H -0.77 V 1.433 h 0.635 L 7.335,-8 v 9.433 h 0.77 V -9.282 H 7.35 Z"/>
    </g>
    <g transform="matrix(0.35277777,0,0,-0.35277777,-69.745921,155.53305)" id="g7075">
      <path id="path7077" style="fill:#231f20;fill-opacity:1;fill-rule:nonzero;stroke:none" d="M 0,0 V 10.715 H 6.973 V 10.02 H 0.77 V 5.765 H 6.038 V 5.1 H 0.77 V 0 Z"/>
    </g>
    <g transform="matrix(0.35277777,0,0,-0.35277777,-66.297791,153.64274)" id="g7079">
      <path id="path7081" style="fill:#231f20;fill-opacity:1;fill-rule:nonzero;stroke:none" d="m 0,0 c 0,-0.615 0.103,-1.204 0.315,-1.767 0.212,-0.564 0.507,-1.066 0.884,-1.509 0.376,-0.443 0.824,-0.795 1.344,-1.056 0.517,-0.261 1.088,-0.391 1.713,-0.391 0.632,0 1.211,0.135 1.735,0.406 0.522,0.271 0.97,0.635 1.341,1.088 0.375,0.453 0.658,0.957 0.855,1.516 0.196,0.559 0.292,1.13 0.292,1.713 0,0.613 -0.1,1.201 -0.307,1.765 C 7.965,2.329 7.67,2.831 7.288,3.274 6.907,3.717 6.456,4.069 5.937,4.332 5.42,4.593 4.859,4.724 4.256,4.724 3.611,4.724 3.028,4.588 2.503,4.315 1.981,4.044 1.536,3.682 1.169,3.229 0.8,2.777 0.514,2.272 0.308,1.713 0.101,1.155 0,0.583 0,0 m 4.241,-5.435 c -0.746,0 -1.425,0.155 -2.038,0.461 -0.615,0.307 -1.142,0.718 -1.585,1.23 -0.443,0.515 -0.785,1.096 -1.027,1.743 -0.241,0.65 -0.361,1.317 -0.361,2.001 0,0.714 0.125,1.396 0.376,2.045 0.251,0.648 0.606,1.226 1.063,1.736 0.458,0.507 0.992,0.91 1.6,1.206 0.611,0.298 1.27,0.445 1.987,0.445 0.753,0 1.435,-0.155 2.043,-0.467 C 6.909,4.652 7.433,4.236 7.876,3.712 8.32,3.19 8.662,2.604 8.903,1.962 9.144,1.317 9.265,0.665 9.265,0 9.265,-0.726 9.139,-1.413 8.888,-2.06 8.637,-2.71 8.283,-3.288 7.825,-3.795 7.367,-4.305 6.833,-4.704 6.225,-4.997 5.614,-5.287 4.955,-5.435 4.241,-5.435"/>
    </g>
    <g transform="matrix(0.35277777,0,0,-0.35277777,-61.617551,153.85634)" id="g7083">
      <path id="path7085" style="fill:#231f20;fill-opacity:1;fill-rule:nonzero;stroke:none" d="M 0,0 H 3.759 C 4.221,0 4.622,0.128 4.965,0.379 5.307,0.63 5.57,0.958 5.757,1.359 5.944,1.762 6.038,2.191 6.038,2.644 6.038,3.104 5.93,3.535 5.713,3.933 5.496,4.33 5.208,4.652 4.851,4.898 4.495,5.144 4.096,5.267 3.653,5.267 H 0 Z M -0.77,-4.753 V 5.962 h 4.452 c 0.463,0 0.884,-0.094 1.26,-0.286 C 5.319,5.484 5.646,5.23 5.925,4.913 6.2,4.598 6.417,4.241 6.572,3.85 6.729,3.458 6.806,3.055 6.806,2.644 6.806,2.109 6.7,1.61 6.491,1.147 6.279,0.684 5.984,0.298 5.607,-0.015 5.23,-0.325 4.79,-0.517 4.285,-0.588 L 6.958,-4.753 H 6.067 L 3.471,-0.709 H 0 v -4.044 z"/>
    </g>
    <g transform="matrix(0.35277777,0,0,-0.35277777,-54.598841,155.53305)" id="g7087">
      <path id="path7089" style="fill:#231f20;fill-opacity:1;fill-rule:nonzero;stroke:none" d="M 0,0 V 9.22 L -4.211,2.009 H -4.723 L -8.935,9.22 V 0 h -0.77 v 10.715 h 0.77 L -4.467,3.05 0,10.715 H 0.77 V 0 Z"/>
    </g>
    <g transform="matrix(0.35277777,0,0,-0.35277777,-51.572751,151.18881)" id="g7091">
      <path id="path7093" style="fill:#231f20;fill-opacity:1;fill-rule:nonzero;stroke:none" d="m 0,0 -0.529,0.244 0.92,1.282 H 1.268 Z M 2.065,-8.15 -0.258,-2.535 -2.587,-8.15 Z M -0.588,-1.6 H 0.074 L 4.603,-12.314 H 3.788 L 2.326,-8.782 H -2.85 l -1.467,-3.532 h -0.83 z"/>
    </g>
    <g transform="matrix(0.35277777,0,0,-0.35277777,-46.820411,151.99817)" id="g7095">
      <path id="path7097" style="fill:#231f20;fill-opacity:1;fill-rule:nonzero;stroke:none" d="M 0,0 H -3.926 V -10.02 H -4.694 V 0 H -8.62 V 0.694 H 0 Z"/>
    </g>
    <path id="path7099" style="fill:#231f20;fill-opacity:1;fill-rule:nonzero;stroke:none;stroke-width:0.35277778" d="m -45.865091,151.75326 h 0.27164 v 3.78002 h -0.27164 z"/>
    <g transform="matrix(0.35277777,0,0,-0.35277777,-44.448161,153.61064)" id="g7101">
      <path id="path7103" style="fill:#231f20;fill-opacity:1;fill-rule:nonzero;stroke:none" d="m 0,0 c 0,0.643 0.113,1.28 0.34,1.908 0.226,0.63 0.556,1.203 0.987,1.72 0.433,0.519 0.965,0.933 1.592,1.246 0.63,0.312 1.347,0.467 2.151,0.467 0.956,0 1.77,-0.219 2.445,-0.657 C 8.189,4.249 8.694,3.687 9.026,3.003 L 8.391,2.641 C 8.14,3.134 7.83,3.525 7.463,3.818 7.096,4.108 6.7,4.317 6.279,4.443 5.856,4.568 5.432,4.633 5.011,4.633 4.337,4.633 3.734,4.497 3.207,4.224 2.678,3.953 2.232,3.591 1.871,3.138 1.509,2.686 1.236,2.183 1.049,1.63 0.862,1.076 0.77,0.517 0.77,-0.047 c 0,-0.632 0.109,-1.235 0.33,-1.804 0.222,-0.568 0.527,-1.073 0.913,-1.516 0.389,-0.443 0.842,-0.795 1.359,-1.056 0.519,-0.261 1.081,-0.391 1.684,-0.391 0.433,0 0.871,0.071 1.319,0.216 0.448,0.148 0.869,0.374 1.26,0.68 0.394,0.307 0.712,0.706 0.953,1.201 L 9.25,-3.035 C 9.019,-3.569 8.672,-4.022 8.209,-4.394 7.746,-4.765 7.234,-5.048 6.67,-5.238 6.107,-5.43 5.548,-5.526 4.994,-5.526 c -0.723,0 -1.393,0.16 -2.006,0.475 -0.615,0.318 -1.144,0.741 -1.592,1.27 -0.448,0.527 -0.793,1.12 -1.034,1.78 C 0.121,-1.341 0,-0.674 0,0"/>
    </g>
    <g transform="matrix(0.35277777,0,0,-0.35277777,-40.151721,153.64274)" id="g7105">
      <path id="path7107" style="fill:#231f20;fill-opacity:1;fill-rule:nonzero;stroke:none" d="m 0,0 c 0,-0.615 0.103,-1.204 0.315,-1.767 0.212,-0.564 0.507,-1.066 0.884,-1.509 0.376,-0.443 0.824,-0.795 1.344,-1.056 0.517,-0.261 1.088,-0.391 1.713,-0.391 0.632,0 1.211,0.135 1.735,0.406 0.522,0.271 0.97,0.635 1.342,1.088 0.374,0.453 0.657,0.957 0.854,1.516 C 8.384,-1.154 8.48,-0.583 8.48,0 8.48,0.613 8.379,1.201 8.172,1.765 7.965,2.329 7.67,2.831 7.288,3.274 6.907,3.717 6.456,4.069 5.937,4.332 5.42,4.593 4.859,4.724 4.256,4.724 3.611,4.724 3.028,4.588 2.503,4.315 1.981,4.044 1.536,3.682 1.169,3.229 0.8,2.777 0.514,2.272 0.308,1.713 0.101,1.155 0,0.583 0,0 m 4.241,-5.435 c -0.746,0 -1.425,0.155 -2.038,0.461 -0.615,0.307 -1.142,0.718 -1.585,1.23 -0.443,0.515 -0.785,1.096 -1.027,1.743 -0.241,0.65 -0.361,1.317 -0.361,2.001 0,0.714 0.125,1.396 0.376,2.045 0.251,0.648 0.606,1.226 1.064,1.736 0.457,0.507 0.991,0.91 1.599,1.206 0.611,0.298 1.27,0.445 1.987,0.445 0.753,0 1.435,-0.155 2.043,-0.467 C 6.909,4.652 7.433,4.236 7.876,3.712 8.32,3.19 8.662,2.604 8.903,1.962 9.144,1.317 9.265,0.665 9.265,0 9.265,-0.726 9.139,-1.413 8.888,-2.06 8.637,-2.71 8.283,-3.288 7.825,-3.795 7.367,-4.305 6.833,-4.704 6.225,-4.997 5.614,-5.287 4.955,-5.435 4.241,-5.435"/>
    </g>
    <g transform="matrix(0.35277777,0,0,-0.35277777,-32.113601,154.06382)" id="g7109">
      <path id="path7111" style="fill:#231f20;fill-opacity:1;fill-rule:nonzero;stroke:none" d="M 0,0 -2.324,5.614 -4.652,0 Z m -2.653,6.55 h 0.662 L 2.538,-4.165 H 1.723 l -1.462,3.532 h -5.176 l -1.467,-3.532 h -0.83 z"/>
    </g>
    <g transform="matrix(0.35277777,0,0,-0.35277777,-30.001851,153.85634)" id="g7113">
      <path id="path7115" style="fill:#231f20;fill-opacity:1;fill-rule:nonzero;stroke:none" d="M 0,0 H 3.759 C 4.221,0 4.622,0.128 4.965,0.379 5.307,0.63 5.57,0.958 5.757,1.359 5.944,1.762 6.038,2.191 6.038,2.644 6.038,3.104 5.93,3.535 5.713,3.933 5.496,4.33 5.208,4.652 4.851,4.898 4.495,5.144 4.096,5.267 3.653,5.267 H 0 Z M -0.77,-4.753 V 5.962 h 4.452 c 0.463,0 0.884,-0.094 1.26,-0.286 C 5.319,5.484 5.646,5.23 5.925,4.913 6.2,4.598 6.417,4.241 6.572,3.85 6.729,3.458 6.806,3.055 6.806,2.644 6.806,2.109 6.7,1.61 6.491,1.147 6.279,0.684 5.984,0.298 5.607,-0.015 5.23,-0.325 4.79,-0.517 4.285,-0.588 L 6.958,-4.753 H 6.067 L 3.471,-0.709 H 0 v -4.044 z"/>
    </g>
    <g transform="matrix(0.35277777,0,0,-0.35277777,-23.643091,153.91449)" id="g7117">
      <path id="path7119" style="fill:#231f20;fill-opacity:1;fill-rule:nonzero;stroke:none" d="M 0,0 H -2.429 V 0.618 H 0.665 V -4.588 H 0 Z m -3.606,-4.664 c -0.726,0 -1.396,0.157 -2.008,0.467 -0.613,0.313 -1.147,0.729 -1.6,1.246 -0.453,0.519 -0.803,1.102 -1.049,1.752 -0.246,0.647 -0.369,1.31 -0.369,1.984 0,0.704 0.121,1.381 0.362,2.031 0.241,0.647 0.583,1.226 1.026,1.735 0.443,0.507 0.965,0.911 1.57,1.206 0.604,0.298 1.263,0.446 1.977,0.446 1.066,0 1.93,-0.219 2.587,-0.658 C -0.45,5.11 0.052,4.549 0.394,3.864 L -0.241,3.485 C -0.603,4.192 -1.083,4.701 -1.684,5.019 -2.282,5.336 -2.959,5.494 -3.712,5.494 -4.347,5.494 -4.92,5.361 -5.432,5.093 -5.947,4.827 -6.385,4.47 -6.747,4.022 -7.109,3.574 -7.384,3.069 -7.576,2.506 -7.768,1.942 -7.862,1.364 -7.862,0.77 c 0,-0.635 0.109,-1.233 0.33,-1.796 0.222,-0.564 0.529,-1.066 0.921,-1.509 0.394,-0.443 0.851,-0.79 1.373,-1.041 0.524,-0.251 1.083,-0.377 1.676,-0.377 0.694,0 1.349,0.167 1.962,0.505 0.613,0.337 1.204,0.868 1.767,1.592 v -0.862 c -1.068,-1.297 -2.326,-1.946 -3.773,-1.946"/>
    </g>
    <g transform="matrix(0.35277777,0,0,-0.35277777,-19.641011,155.28821)" id="g7121">
      <path id="path7123" style="fill:#231f20;fill-opacity:1;fill-rule:nonzero;stroke:none" d="m 0,0 v -0.694 h -7.141 v 10.715 h 7.003 V 9.326 H -6.37 V 5.117 h 5.447 V 4.453 H -6.37 V 0 Z"/>
    </g>
    <g transform="matrix(0.35277777,0,0,-0.35277777,-18.341111,152.25857)" id="g7125">
      <path id="path7127" style="fill:#231f20;fill-opacity:1;fill-rule:nonzero;stroke:none" d="M 0,0 V -9.282 H -0.77 V 1.433 h 0.635 L 7.335,-8 v 9.433 h 0.77 V -9.282 H 7.35 Z"/>
    </g>
    <g transform="matrix(0.35277777,0,0,-0.35277777,-11.483091,151.99817)" id="g7129">
      <path id="path7131" style="fill:#231f20;fill-opacity:1;fill-rule:nonzero;stroke:none" d="M 0,0 H -3.926 V -10.02 H -4.694 V 0 H -8.62 V 0.694 H 0 Z"/>
    </g>
    <path id="path7133" style="fill:#231f20;fill-opacity:1;fill-rule:nonzero;stroke:none;stroke-width:0.35277778" d="m -10.526281,151.75326 h 0.27164 v 3.78002 h -0.27164 z"/>
    <g transform="matrix(0.35277777,0,0,-0.35277777,-8.601141,152.25857)" id="g7135">
      <path id="path7137" style="fill:#231f20;fill-opacity:1;fill-rule:nonzero;stroke:none" d="M 0,0 V -9.282 H -0.77 V 1.433 h 0.635 L 7.335,-8 v 9.433 h 0.77 V -9.282 H 7.35 Z"/>
    </g>
    <g transform="matrix(0.35277777,0,0,-0.35277777,-4.325521,153.64274)" id="g7139">
      <path id="path7141" style="fill:#231f20;fill-opacity:1;fill-rule:nonzero;stroke:none" d="m 0,0 c 0,-0.615 0.103,-1.204 0.315,-1.767 0.212,-0.564 0.507,-1.066 0.884,-1.509 0.376,-0.443 0.824,-0.795 1.344,-1.056 0.517,-0.261 1.088,-0.391 1.713,-0.391 0.632,0 1.211,0.135 1.735,0.406 0.522,0.271 0.97,0.635 1.342,1.088 0.374,0.453 0.657,0.957 0.854,1.516 0.197,0.559 0.292,1.13 0.292,1.713 0,0.613 -0.1,1.201 -0.307,1.765 C 7.965,2.329 7.67,2.831 7.288,3.274 6.907,3.717 6.456,4.069 5.937,4.332 5.42,4.593 4.859,4.724 4.256,4.724 3.611,4.724 3.028,4.588 2.503,4.315 1.981,4.044 1.536,3.682 1.169,3.229 0.8,2.777 0.514,2.272 0.308,1.713 0.101,1.155 0,0.583 0,0 m 4.241,-5.435 c -0.746,0 -1.425,0.155 -2.038,0.461 -0.615,0.307 -1.142,0.718 -1.585,1.23 -0.443,0.515 -0.785,1.096 -1.027,1.743 -0.241,0.65 -0.361,1.317 -0.361,2.001 0,0.714 0.125,1.396 0.376,2.045 0.251,0.648 0.606,1.226 1.063,1.736 0.458,0.507 0.992,0.91 1.6,1.206 0.611,0.298 1.27,0.445 1.987,0.445 0.753,0 1.435,-0.155 2.043,-0.467 C 6.909,4.652 7.433,4.236 7.876,3.712 8.32,3.19 8.662,2.604 8.903,1.962 9.144,1.317 9.265,0.665 9.265,0 9.265,-0.726 9.139,-1.413 8.888,-2.06 8.637,-2.71 8.283,-3.288 7.825,-3.795 7.367,-4.305 6.833,-4.704 6.225,-4.997 5.614,-5.287 4.955,-5.435 4.241,-5.435"/>
    </g>
  </g>
</svg>